<?xml version="1.0"?>
<svg xmlns="http://www.w3.org/2000/svg" width="1147.6928673239554" height="480" viewBox="138.489013671875 118.69160461425781 360.0670166015625 150.59095764160156"> 
 <path d="m157.916718,147.370667c30.168564,-35.054321 89.017731,-47.063972 131.148621,17.120743c68.947449,0.251373 137.883514,0.400528 206.831299,0.6521c0.88382,7.759171 1.775299,15.584366 2.659393,23.343842c-9.475342,9.836548 -18.901794,19.622269 -28.377075,29.458649c-7.488037,0.542679 -15.007141,1.05571 -22.495148,1.598419c-4.190887,-3.844604 -8.349945,-7.659943 -12.540466,-11.504196c-3.534332,4.632614 -7.096832,9.369263 -10.630798,14.002228c-8.227509,-0.1362 -16.492523,-0.306915 -24.720245,-0.44278c-4.200104,-4.316605 -8.371307,-8.737045 -12.571991,-13.053619c-3.297211,4.386642 -6.556,8.808472 -9.853241,13.195114c-6.293945,-0.214844 -12.573792,-0.369888 -18.867737,-0.585312c-4.674194,-3.824341 -9.453125,-7.614456 -14.127014,-11.439133c-2.8237,3.895081 -5.572388,7.786682 -8.395813,11.682053c-14.037811,-0.370972 -28.064117,-0.814911 -42.101959,-1.185913c-65.513397,96.933594 -163.309952,30.846497 -154.874023,-32.044144c1.987854,-14.821259 8.860229,-29.113464 18.916199,-40.79805l0,0l0,0l0,0l0,0l0,0l0,0l0,0l0,0l0,0l0,0l0,0l0,0l0,0l0,0l0,0l0,0l0,0l0,0l0,0zm7.231384,43.120728c-5.295868,5.497742 -5.124039,13.923355 0.387161,18.979111c5.51123,5.055817 14.240372,4.79567 19.53627,-0.702057c5.295883,-5.497711 5.119949,-14.116837 -0.391266,-19.172623c-5.511215,-5.055756 -14.236298,-4.602158 -19.532166,0.895569z" id="path2464" stroke-width="1.0871757pt" stroke="#000000" fill-rule="evenodd" fill="#000000"/><path d="m157.189957,146.938858c30.167969,-34.590416 89.017136,-46.441132 131.147964,16.893311c68.947998,0.248276 137.884155,0.395706 206.832092,0.643982c0.883118,7.656647 1.775177,15.377975 2.659332,23.034607c-9.475464,9.706589 -18.902557,19.362762 -28.377014,29.06839c-7.487885,0.535568 -15.007416,1.041626 -22.4953,1.577194c-4.191467,-3.79361 -8.350311,-7.55867 -12.540741,-11.351318c-3.534546,4.57077 -7.096741,9.245224 -10.63028,13.81694c-8.227814,-0.135071 -16.493134,-0.303452 -24.720947,-0.437561c-4.200317,-4.258743 -8.371033,-8.621185 -12.571381,-12.879959c-3.297455,4.328201 -6.556366,8.691574 -9.85379,13.019791c-6.29361,-0.212112 -12.573364,-0.36528 -18.86795,-0.577408c-4.673492,-3.773621 -9.452728,-7.513962 -14.126251,-11.287567c-2.824249,3.843048 -5.572449,7.683273 -8.395752,11.527267c-14.038361,-0.366211 -28.064819,-0.803802 -42.102173,-1.170013c-65.513229,95.650406 -163.310364,30.438187 -154.874115,-31.619659c1.987534,-14.625519 8.860001,-28.728806 18.916306,-40.257996l0,0l0,0l0,0l0,0l0,0l0,0l0,0l0,0l0,0l0,0l0,0l0,0l0,0l0,0l0,0l0,0l0,0l0,0zm7.231079,42.549561c-5.295853,5.425003 -5.123947,13.738937 0.387238,18.72731c5.51123,4.989319 14.240845,4.732498 19.536728,-0.692505c5.295837,-5.425003 5.119019,-13.930145 -0.39119,-18.918533c-5.51123,-4.989304 -14.236908,-4.541275 -19.532776,0.883728z" id="path3089" stroke-width="1.0871757pt" stroke="#000000" fill-rule="evenodd" fill="#ed1c1c"/>
</svg>
